<svg version="1.1" viewBox="0.0 0.0 1024.0 1024.0" fill="none" stroke="none" stroke-linecap="square" stroke-miterlimit="10" xmlns:xlink="http://www.w3.org/1999/xlink" xmlns="http://www.w3.org/2000/svg"><clipPath id="p.0"><path d="m0 0l1024.0 0l0 1024.0l-1024.0 0l0 -1024.0z" clip-rule="nonzero"/></clipPath><g clip-path="url(#p.0)"><path fill="#000000" fill-opacity="0.0" d="m0 0l1024.0 0l0 1024.0l-1024.0 0z" fill-rule="evenodd"/><path fill="#003f63" d="m0 247.49055c0 -136.68526 110.8053 -247.49055 247.49055 -247.49055l529.0189 0c65.63855 0 128.58875 26.074823 175.00226 72.488304c46.413452 46.413483 72.48828 109.363686 72.48828 175.00226l0 529.0189c0 136.68524 -110.8053 247.49054 -247.49054 247.49054l-529.0189 0c-136.68526 0 -247.49055 -110.8053 -247.49055 -247.49054z" fill-rule="evenodd"/><path stroke="#003f63" stroke-width="1.0" stroke-linejoin="round" stroke-linecap="butt" d="m0 247.49055c0 -136.68526 110.8053 -247.49055 247.49055 -247.49055l529.0189 0c65.63855 0 128.58875 26.074823 175.00226 72.488304c46.413452 46.413483 72.48828 109.363686 72.48828 175.00226l0 529.0189c0 136.68524 -110.8053 247.49054 -247.49054 247.49054l-529.0189 0c-136.68526 0 -247.49055 -110.8053 -247.49055 -247.49054z" fill-rule="evenodd"/><path fill="#003f63" d="m0.031496063 247.49055c0 -136.68526 110.8053 -247.49055 247.49055 -247.49055l529.0189 0c65.63855 0 128.58875 26.074823 175.00226 72.488304c46.413452 46.413483 72.48828 109.363686 72.48828 175.00226l0 529.0189c0 136.68524 -110.8053 247.49054 -247.49054 247.49054l-529.0189 0c-136.68526 0 -247.49055 -110.8053 -247.49055 -247.49054z" fill-rule="evenodd"/><path stroke="#003f63" stroke-width="1.0" stroke-linejoin="round" stroke-linecap="butt" d="m0.031496063 247.49055c0 -136.68526 110.8053 -247.49055 247.49055 -247.49055l529.0189 0c65.63855 0 128.58875 26.074823 175.00226 72.488304c46.413452 46.413483 72.48828 109.363686 72.48828 175.00226l0 529.0189c0 136.68524 -110.8053 247.49054 -247.49054 247.49054l-529.0189 0c-136.68526 0 -247.49055 -110.8053 -247.49055 -247.49054z" fill-rule="evenodd"/><path fill="#000000" fill-opacity="0.0" d="m87.125984 60.249344l0 903.874" fill-rule="evenodd"/><path stroke="#666666" stroke-width="3.0" stroke-linejoin="round" stroke-linecap="butt" d="m87.125984 60.249344l0 903.874" fill-rule="evenodd"/><path fill="#000000" fill-opacity="0.0" d="m193.37534 6.0l0 1012.0315" fill-rule="evenodd"/><path stroke="#666666" stroke-width="3.0" stroke-linejoin="round" stroke-linecap="butt" d="m193.37534 6.0l0 1012.0315" fill-rule="evenodd"/><path fill="#000000" fill-opacity="0.0" d="m299.62466 0l-0.12597656 1024.0" fill-rule="evenodd"/><path stroke="#666666" stroke-width="3.0" stroke-linejoin="round" stroke-linecap="butt" d="m299.62466 0l-0.12597656 1024.0" fill-rule="evenodd"/><path fill="#000000" fill-opacity="0.0" d="m405.74802 -0.062992126l0.0630188 1024.189" fill-rule="evenodd"/><path stroke="#666666" stroke-width="3.0" stroke-linejoin="round" stroke-linecap="butt" d="m405.74802 -0.062992126l0.0630188 1024.189" fill-rule="evenodd"/><path fill="#000000" fill-opacity="0.0" d="m511.99738 0l-0.06298828 1023.937" fill-rule="evenodd"/><path stroke="#666666" stroke-width="3.0" stroke-linejoin="round" stroke-linecap="butt" d="m511.99738 0l-0.06298828 1023.937" fill-rule="evenodd"/><path fill="#000000" fill-opacity="0.0" d="m618.2467 0l-0.12597656 1024.0" fill-rule="evenodd"/><path stroke="#666666" stroke-width="3.0" stroke-linejoin="round" stroke-linecap="butt" d="m618.2467 0l-0.12597656 1024.0" fill-rule="evenodd"/><path fill="#000000" fill-opacity="0.0" d="m724.4619 -0.062992126l0.06304932 1024.189" fill-rule="evenodd"/><path stroke="#666666" stroke-width="3.0" stroke-linejoin="round" stroke-linecap="butt" d="m724.4619 -0.062992126l0.06304932 1024.189" fill-rule="evenodd"/><path fill="#000000" fill-opacity="0.0" d="m830.6483 6.0l0 1011.937" fill-rule="evenodd"/><path stroke="#666666" stroke-width="3.0" stroke-linejoin="round" stroke-linecap="butt" d="m830.6483 6.0l0 1011.937" fill-rule="evenodd"/><path fill="#000000" fill-opacity="0.0" d="m936.83466 59.81365l0 904.4094" fill-rule="evenodd"/><path stroke="#666666" stroke-width="3.0" stroke-linejoin="round" stroke-linecap="butt" d="m936.83466 59.81365l0 904.4094" fill-rule="evenodd"/><path fill="#000000" fill-opacity="0.0" d="m964.2493 87.178474l-904.31494 0" fill-rule="evenodd"/><path stroke="#666666" stroke-width="3.0" stroke-linejoin="round" stroke-linecap="butt" d="m964.2493 87.178474l-904.31494 0" fill-rule="evenodd"/><path fill="#000000" fill-opacity="0.0" d="m1017.7507 193.30183l-1011.68506 0" fill-rule="evenodd"/><path stroke="#666666" stroke-width="3.0" stroke-linejoin="round" stroke-linecap="butt" d="m1017.7507 193.30183l-1011.68506 0" fill-rule="evenodd"/><path fill="#000000" fill-opacity="0.0" d="m1024.0616 299.61285l-1023.99994 -0.12597656" fill-rule="evenodd"/><path stroke="#666666" stroke-width="3.0" stroke-linejoin="round" stroke-linecap="butt" d="m1024.0616 299.61285l-1023.99994 -0.12597656" fill-rule="evenodd"/><path fill="#000000" fill-opacity="0.0" d="m1024.1246 405.7362l-1024.189 0.0630188" fill-rule="evenodd"/><path stroke="#666666" stroke-width="3.0" stroke-linejoin="round" stroke-linecap="butt" d="m1024.1246 405.7362l-1024.189 0.0630188" fill-rule="evenodd"/><path fill="#000000" fill-opacity="0.0" d="m1024.0616 511.98557l-1023.93695 -0.06298828" fill-rule="evenodd"/><path stroke="#666666" stroke-width="3.0" stroke-linejoin="round" stroke-linecap="butt" d="m1024.0616 511.98557l-1023.93695 -0.06298828" fill-rule="evenodd"/><path fill="#000000" fill-opacity="0.0" d="m1024.0616 618.2349l-1023.99994 -0.12597656" fill-rule="evenodd"/><path stroke="#666666" stroke-width="3.0" stroke-linejoin="round" stroke-linecap="butt" d="m1024.0616 618.2349l-1023.99994 -0.12597656" fill-rule="evenodd"/><path fill="#000000" fill-opacity="0.0" d="m1024.1246 724.45013l-1024.189 0.06298828" fill-rule="evenodd"/><path stroke="#666666" stroke-width="3.0" stroke-linejoin="round" stroke-linecap="butt" d="m1024.1246 724.45013l-1024.189 0.06298828" fill-rule="evenodd"/><path fill="#000000" fill-opacity="0.0" d="m1017.81366 830.6378l-1011.874 0" fill-rule="evenodd"/><path stroke="#666666" stroke-width="3.0" stroke-linejoin="round" stroke-linecap="butt" d="m1017.81366 830.6378l-1011.874 0" fill-rule="evenodd"/><path fill="#000000" fill-opacity="0.0" d="m964.2493 936.82416l-904.3779 0" fill-rule="evenodd"/><path stroke="#666666" stroke-width="3.0" stroke-linejoin="round" stroke-linecap="butt" d="m964.2493 936.82416l-904.3779 0" fill-rule="evenodd"/><path fill="#44c368" d="m299.55905 123.154366c0 -19.797905 16.049377 -35.847282 35.84729 -35.847282l353.18735 0c9.507263 0 18.625183 3.7767563 25.34784 10.499428c6.7226562 6.7226715 10.49939 15.840569 10.49939 25.347855l0 34.51017c0 19.797897 -16.049377 35.847275 -35.84723 35.847275l-353.18735 0c-19.797913 0 -35.84729 -16.049377 -35.84729 -35.847275z" fill-rule="evenodd"/><path stroke="#595959" stroke-width="1.0" stroke-linejoin="round" stroke-linecap="butt" d="m299.55905 123.154366c0 -19.797905 16.049377 -35.847282 35.84729 -35.847282l353.18735 0c9.507263 0 18.625183 3.7767563 25.34784 10.499428c6.7226562 6.7226715 10.49939 15.840569 10.49939 25.347855l0 34.51017c0 19.797897 -16.049377 35.847275 -35.84723 35.847275l-353.18735 0c-19.797913 0 -35.84729 -16.049377 -35.84729 -35.847275z" fill-rule="evenodd"/><path fill="#ef9b3c" d="m299.55905 371.36856c0 -39.572327 32.079712 -71.65204 71.65204 -71.65204l281.5778 0c19.003357 0 37.228333 7.5490417 50.66565 20.98642c13.437378 13.437347 20.98639 31.662323 20.98639 50.66562l0 68.9794c0 39.572327 -32.079712 71.65204 -71.65204 71.65204l-281.5778 0c-39.572327 0 -71.65204 -32.079712 -71.65204 -71.65204z" fill-rule="evenodd"/><path stroke="#595959" stroke-width="1.0" stroke-linejoin="round" stroke-linecap="butt" d="m299.55905 371.36856c0 -39.572327 32.079712 -71.65204 71.65204 -71.65204l281.5778 0c19.003357 0 37.228333 7.5490417 50.66565 20.98642c13.437378 13.437347 20.98639 31.662323 20.98639 50.66562l0 68.9794c0 39.572327 -32.079712 71.65204 -71.65204 71.65204l-281.5778 0c-39.572327 0 -71.65204 -32.079712 -71.65204 -71.65204z" fill-rule="evenodd"/><path fill="#e64429" d="m512.01575 689.85675c0 -39.572327 32.079712 -71.65204 71.65204 -71.65204l281.57782 0c19.003296 0 37.22827 7.5490723 50.66565 20.98639c13.437378 13.437378 20.98639 31.662354 20.98639 50.66565l0 68.97943c0 39.572327 -32.079712 71.65198 -71.65204 71.65198l-281.57782 0c-39.572327 0 -71.65204 -32.07965 -71.65204 -71.65198z" fill-rule="evenodd"/><path stroke="#595959" stroke-width="1.0" stroke-linejoin="round" stroke-linecap="butt" d="m512.01575 689.85675c0 -39.572327 32.079712 -71.65204 71.65204 -71.65204l281.57782 0c19.003296 0 37.22827 7.5490723 50.66565 20.98639c13.437378 13.437378 20.98639 31.662354 20.98639 50.66565l0 68.97943c0 39.572327 -32.079712 71.65198 -71.65204 71.65198l-281.57782 0c-39.572327 0 -71.65204 -32.07965 -71.65204 -71.65198z" fill-rule="evenodd"/><path fill="#757dd9" d="m87.097115 689.85675c0 -39.572327 32.079712 -71.65204 71.65203 -71.65204l175.37311 0c19.003296 0 37.22827 7.5490723 50.66562 20.98639c13.437378 13.437378 20.98642 31.662354 20.98642 50.66565l0 68.97943c0 39.572327 -32.079712 71.65198 -71.65204 71.65198l-175.37311 0c-39.57232 0 -71.65203 -32.07965 -71.65203 -71.65198z" fill-rule="evenodd"/><path stroke="#595959" stroke-width="1.0" stroke-linejoin="round" stroke-linecap="butt" d="m87.097115 689.85675c0 -39.572327 32.079712 -71.65204 71.65203 -71.65204l175.37311 0c19.003296 0 37.22827 7.5490723 50.66562 20.98639c13.437378 13.437378 20.98642 31.662354 20.98642 50.66565l0 68.97943c0 39.572327 -32.079712 71.65198 -71.65204 71.65198l-175.37311 0c-39.57232 0 -71.65203 -32.07965 -71.65203 -71.65198z" fill-rule="evenodd"/><path fill="#000000" fill-opacity="0.0" d="m512.0 299.71652c0 -26.551178 0.01574707 -39.82675 0.03149414 -53.102356c0.01574707 -13.275589 0.03149414 -26.551178 0.03149414 -53.102356" fill-rule="evenodd"/><path stroke="#6aa84f" stroke-width="24.0" stroke-linejoin="round" stroke-linecap="butt" d="m512.0 299.71652c0 -26.551178 0.01574707 -39.82675 0.03149414 -53.102356c0.01574707 -13.275589 0.03149414 -26.551178 0.03149414 -53.102356" fill-rule="evenodd"/><path fill="#000000" fill-opacity="0.0" d="m246.4357 618.2047c0 -26.551147 66.39371 -39.826782 132.78738 -53.102356c66.39371 -13.275574 132.78741 -26.551147 132.78741 -53.102356" fill-rule="evenodd"/><path stroke="#ffd966" stroke-width="24.0" stroke-linejoin="round" stroke-linecap="butt" d="m246.4357 618.2047c0 -26.551147 66.39371 -39.826782 132.78738 -53.102356c66.39371 -13.275574 132.78741 -26.551147 132.78741 -53.102356" fill-rule="evenodd"/><path fill="#000000" fill-opacity="0.0" d="m724.45667 618.2047c0 -26.551147 -53.11023 -39.826782 -106.22046 -53.102356c-53.11023 -13.275574 -106.22046 -26.551147 -106.22046 -53.102356" fill-rule="evenodd"/><path stroke="#c27ba0" stroke-width="16.0" stroke-linejoin="round" stroke-linecap="butt" stroke-dasharray="64.0,48.0" d="m724.45667 618.2047c0 -26.551147 -53.11023 -39.826782 -106.22046 -53.102356c-53.11023 -13.275574 -106.22046 -26.551147 -106.22046 -53.102356" fill-rule="evenodd"/></g></svg>