<svg version="1.1" viewBox="0.0 0.0 1024.0 1024.0" fill="none" stroke="none" stroke-linecap="square" stroke-miterlimit="10" xmlns:xlink="http://www.w3.org/1999/xlink" xmlns="http://www.w3.org/2000/svg"><clipPath id="p.0"><path d="m0 0l1024.0 0l0 1024.0l-1024.0 0l0 -1024.0z" clip-rule="nonzero"/></clipPath><g clip-path="url(#p.0)"><path fill="#000000" fill-opacity="0.0" d="m0 0l1024.0 0l0 1024.0l-1024.0 0z" fill-rule="evenodd"/><defs><linearGradient id="p.1" gradientUnits="userSpaceOnUse" gradientTransform="matrix(38.05462730060987 0.0 0.0 38.05462730060987 0.0 0.0)" spreadMethod="pad" x1="13.45482880939166" y1="40.36302833467465" x2="40.36385598863493" y2="13.454685478692811"><stop offset="0.0" stop-color="#757dd9"/><stop offset="0.36" stop-color="#3d85c6"/><stop offset="1.0" stop-color="#003f63"/></linearGradient></defs><path fill="url(#p.1)" d="m0.031496063 333.91617c0 -184.41681 149.49936 -333.91617 333.91617 -333.91617l356.1677 0c88.56006 0 173.49292 35.18035 236.11438 97.80178c62.6214 62.62142 97.80176 147.55432 97.80176 236.11438l0 356.1677c0 184.41681 -149.49933 333.91614 -333.91614 333.91614l-356.1677 0c-184.41681 0 -333.91617 -149.49933 -333.91617 -333.91614z" fill-rule="evenodd"/><path fill="#44c368" d="m299.55905 123.154366c0 -19.797905 16.049377 -35.847282 35.84729 -35.847282l353.18735 0c9.507263 0 18.625183 3.7767563 25.34784 10.499428c6.7226562 6.7226715 10.49939 15.840569 10.49939 25.347855l0 34.51017c0 19.797897 -16.049377 35.847275 -35.84723 35.847275l-353.18735 0c-19.797913 0 -35.84729 -16.049377 -35.84729 -35.847275z" fill-rule="evenodd"/><path stroke="#318d4b" stroke-width="8.0" stroke-linejoin="round" stroke-linecap="butt" d="m299.55905 123.154366c0 -19.797905 16.049377 -35.847282 35.84729 -35.847282l353.18735 0c9.507263 0 18.625183 3.7767563 25.34784 10.499428c6.7226562 6.7226715 10.49939 15.840569 10.49939 25.347855l0 34.51017c0 19.797897 -16.049377 35.847275 -35.84723 35.847275l-353.18735 0c-19.797913 0 -35.84729 -16.049377 -35.84729 -35.847275z" fill-rule="evenodd"/><path fill="#ef9b3c" d="m299.55905 371.36856c0 -39.572327 32.079712 -71.65204 71.65204 -71.65204l281.5778 0c19.003357 0 37.228333 7.5490417 50.66565 20.98642c13.437378 13.437347 20.98639 31.662323 20.98639 50.66562l0 68.9794c0 39.572327 -32.079712 71.65204 -71.65204 71.65204l-281.5778 0c-39.572327 0 -71.65204 -32.079712 -71.65204 -71.65204z" fill-rule="evenodd"/><path stroke="#885822" stroke-width="8.0" stroke-linejoin="round" stroke-linecap="butt" d="m299.55905 371.36856c0 -39.572327 32.079712 -71.65204 71.65204 -71.65204l281.5778 0c19.003357 0 37.228333 7.5490417 50.66565 20.98642c13.437378 13.437347 20.98639 31.662323 20.98639 50.66562l0 68.9794c0 39.572327 -32.079712 71.65204 -71.65204 71.65204l-281.5778 0c-39.572327 0 -71.65204 -32.079712 -71.65204 -71.65204z" fill-rule="evenodd"/><path fill="#e64429" d="m512.01575 689.85675c0 -39.572327 32.079712 -71.65204 71.65204 -71.65204l281.57782 0c19.003296 0 37.22827 7.5490723 50.66565 20.98639c13.437378 13.437378 20.98639 31.662354 20.98639 50.66565l0 68.97943c0 39.572327 -32.079712 71.65198 -71.65204 71.65198l-281.57782 0c-39.572327 0 -71.65204 -32.07965 -71.65204 -71.65198z" fill-rule="evenodd"/><path stroke="#772218" stroke-width="8.0" stroke-linejoin="round" stroke-linecap="butt" d="m512.01575 689.85675c0 -39.572327 32.079712 -71.65204 71.65204 -71.65204l281.57782 0c19.003296 0 37.22827 7.5490723 50.66565 20.98639c13.437378 13.437378 20.98639 31.662354 20.98639 50.66565l0 68.97943c0 39.572327 -32.079712 71.65198 -71.65204 71.65198l-281.57782 0c-39.572327 0 -71.65204 -32.07965 -71.65204 -71.65198z" fill-rule="evenodd"/><path fill="#d70dd4" d="m87.097115 689.85675c0 -39.572327 32.079712 -71.65204 71.65203 -71.65204l175.37311 0c19.003296 0 37.22827 7.5490723 50.66562 20.98639c13.437378 13.437378 20.98642 31.662354 20.98642 50.66565l0 68.97943c0 39.572327 -32.079712 71.65198 -71.65204 71.65198l-175.37311 0c-39.57232 0 -71.65203 -32.07965 -71.65203 -71.65198z" fill-rule="evenodd"/><path stroke="#6c086a" stroke-width="8.0" stroke-linejoin="round" stroke-linecap="butt" d="m87.097115 689.85675c0 -39.572327 32.079712 -71.65204 71.65203 -71.65204l175.37311 0c19.003296 0 37.22827 7.5490723 50.66562 20.98639c13.437378 13.437378 20.98642 31.662354 20.98642 50.66565l0 68.97943c0 39.572327 -32.079712 71.65198 -71.65204 71.65198l-175.37311 0c-39.57232 0 -71.65203 -32.07965 -71.65203 -71.65198z" fill-rule="evenodd"/><path fill="#000000" fill-opacity="0.0" d="m512.0 299.71652c0 -26.551178 0.01574707 -39.82675 0.03149414 -53.102356c0.01574707 -13.275589 0.03149414 -26.551178 0.03149414 -53.102356" fill-rule="evenodd"/><path stroke="#6aa84f" stroke-width="24.0" stroke-linejoin="round" stroke-linecap="butt" d="m512.0 299.71652c0 -26.551178 0.01574707 -39.82675 0.03149414 -53.102356c0.01574707 -13.275589 0.03149414 -26.551178 0.03149414 -53.102356" fill-rule="evenodd"/><path fill="#000000" fill-opacity="0.0" d="m246.4357 618.2047c0 -26.551147 66.39371 -39.826782 132.78738 -53.102356c66.39371 -13.275574 132.78741 -26.551147 132.78741 -53.102356" fill-rule="evenodd"/><path stroke="#ffd966" stroke-width="24.0" stroke-linejoin="round" stroke-linecap="butt" d="m246.4357 618.2047c0 -26.551147 66.39371 -39.826782 132.78738 -53.102356c66.39371 -13.275574 132.78741 -26.551147 132.78741 -53.102356" fill-rule="evenodd"/><path fill="#000000" fill-opacity="0.0" d="m724.45667 618.2047c0 -26.551147 -53.11023 -39.826782 -106.22046 -53.102356c-53.11023 -13.275574 -106.22046 -26.551147 -106.22046 -53.102356" fill-rule="evenodd"/><path stroke="#c27ba0" stroke-width="16.0" stroke-linejoin="round" stroke-linecap="butt" stroke-dasharray="64.0,48.0" d="m724.45667 618.2047c0 -26.551147 -53.11023 -39.826782 -106.22046 -53.102356c-53.11023 -13.275574 -106.22046 -26.551147 -106.22046 -53.102356" fill-rule="evenodd"/></g></svg>